<svg width="110" height="110" viewBox="0 0 110 110" fill="none" xmlns="http://www.w3.org/2000/svg">
<path d="M68.9563 17.1188L58.8844 8.31876C57.8189 7.38564 56.4507 6.87125 55.0344 6.87125C53.618 6.87125 52.2499 7.38564 51.1844 8.31876L40.7688 17.3938C39.3709 18.6307 38.4099 20.286 38.029 22.1133C37.6481 23.9405 37.8675 25.8419 38.6547 27.5344H36.1281C34.0962 27.5299 32.0963 28.0401 30.3148 29.0174C28.5333 29.9947 27.0284 31.4073 25.9404 33.1234C24.8524 34.8395 24.2168 36.8032 24.0928 38.8314C23.9688 40.8595 24.3604 42.886 25.2313 44.7219C22.2281 44.8592 19.3852 46.1159 17.2622 48.2445C15.1393 50.3731 13.8901 53.2194 13.7608 56.2229C13.6314 59.2264 14.6312 62.1696 16.5633 64.4728C18.4954 66.776 21.2198 68.2725 24.2 68.6675H23.3063C22.3563 68.665 21.4188 68.8849 20.5691 69.3097C19.7194 69.7345 18.9809 70.3524 18.4129 71.1139C17.8449 71.8754 17.463 72.7593 17.298 73.6949C17.133 74.6305 17.1893 75.5917 17.4625 76.5016C16.8231 76.1578 15.5994 77.1238 16.1494 79.0522L22.3369 99.6772C22.742 100.711 23.4541 101.595 24.3772 102.212C25.3004 102.828 26.3902 103.147 27.5 103.125H82.5C83.6235 103.231 84.7491 102.947 85.688 102.321C86.627 101.695 87.3219 100.765 87.6563 99.6875C87.6563 99.6875 94.3113 78.815 93.8988 77.1238C93.8511 76.9299 93.7463 76.7549 93.598 76.6213C93.4496 76.4876 93.2646 76.4016 93.0669 76.3744C92.9343 76.359 92.8001 76.3695 92.6716 76.4053C92.9184 75.4975 92.9526 74.5449 92.7714 73.6217C92.5902 72.6984 92.1986 71.8294 91.6269 71.0822C91.0552 70.335 90.319 69.7296 89.4753 69.3132C88.6317 68.8968 87.7033 68.6805 86.7625 68.6813H85.8653C88.8506 68.2886 91.5802 66.7908 93.515 64.4836C95.4497 62.1765 96.4491 59.2277 96.3157 56.2197C96.1823 53.2116 94.9258 50.3629 92.7944 48.2361C90.6629 46.1093 87.8115 44.859 84.8031 44.7322C85.6715 42.9016 86.0635 40.8813 85.9427 38.8588C85.8219 36.8363 85.1924 34.877 84.1124 33.1628C83.0324 31.4485 81.5369 30.0347 79.7648 29.0526C77.9926 28.0705 76.0011 27.5518 73.975 27.5447H71.4141C71.9469 26.4034 72.2253 25.1591 72.2219 23.9009C72.2362 22.7452 72.0116 21.5991 71.562 20.5343C71.1124 19.4695 70.4477 18.5091 69.6094 17.7134C69.4657 17.5658 69.3154 17.4248 69.1591 17.2906L69.0456 17.1875L68.9563 17.1188ZM36.7606 99.6875L34.4266 88C34.3354 87.5533 34.4254 87.0886 34.6768 86.7083C34.9283 86.3279 35.3205 86.0631 35.7672 85.9719C36.2139 85.8807 36.6786 85.9707 37.0589 86.2222C37.4393 86.4736 37.7042 86.8658 37.7953 87.3125L40.2703 99.6875H36.7606ZM53.2813 99.6875V87.6563C53.2813 87.2004 53.4623 86.7632 53.7847 86.4409C54.107 86.1186 54.5442 85.9375 55 85.9375C55.4559 85.9375 55.893 86.1186 56.2154 86.4409C56.5377 86.7632 56.7188 87.2004 56.7188 87.6563V99.6875H53.2813ZM69.7469 99.6875L72.2219 87.3125C72.277 87.0346 72.4002 86.7747 72.5804 86.5561C72.7607 86.3375 72.9924 86.1671 73.2547 86.0601C73.517 85.9532 73.8018 85.913 74.0835 85.9432C74.3652 85.9734 74.6351 86.073 74.8688 86.2331C75.1502 86.4233 75.369 86.6927 75.4975 87.0072C75.626 87.3216 75.6584 87.6671 75.5906 88L73.2566 99.6875H69.7469ZM89.3441 75.5563L88.9419 76.8659V76.8522C88.8346 76.9366 88.7324 77.0273 88.6359 77.1238L86.0647 80.1178C85.8378 80.3791 85.4391 80.4616 85.2775 80.1178L84.095 77.3919C83.4934 76.0684 81.0047 75.7488 79.0625 77.5122L76.3125 80.1178C76.2052 80.2512 76.0694 80.3589 75.915 80.4328C75.7607 80.5068 75.5917 80.5452 75.4205 80.5452C75.2493 80.5452 75.0803 80.5068 74.9259 80.4328C74.7715 80.3589 74.6357 80.2512 74.5284 80.1178L72.1222 77.1238C70.9019 75.6491 68.0316 76.2919 66.1891 77.6497L63.25 80.1178C62.9328 80.3814 62.5333 80.5258 62.1208 80.5258C61.7083 80.5258 61.3088 80.3814 60.9916 80.1178L58.2416 77.3919C57.2883 76.6681 56.1191 76.2864 54.9224 76.3082C53.7257 76.33 52.5712 76.7541 51.645 77.5122L48.895 80.1178C48.5724 80.3197 48.1996 80.4268 47.8191 80.4268C47.4385 80.4268 47.0657 80.3197 46.7431 80.1178L43.1647 77.1238C42.3003 76.4908 41.2346 76.1949 40.1675 76.2918C39.1005 76.3886 38.1054 76.8714 37.3691 77.6497L35.4028 80.1178C35.0831 80.4822 34.5022 80.6403 33.7769 80.1178L30.415 77.1238C30.0846 76.827 29.6952 76.6035 29.2722 76.4681C28.8493 76.3327 28.4025 76.2883 27.9612 76.338C27.5199 76.3877 27.0941 76.5303 26.7118 76.7563C26.3296 76.9824 25.9996 77.2869 25.7435 77.6497L24.7981 79.75C24.7981 79.75 24.5369 80.6403 24.0625 80.1178L21.6081 77.1238C21.4542 76.9548 21.2838 76.8017 21.0994 76.6666L20.7556 75.5288C20.6362 75.1321 20.6115 74.713 20.6836 74.3051C20.7557 73.8972 20.9225 73.5119 21.1706 73.1802C21.4187 72.8485 21.7412 72.5797 22.1121 72.3953C22.483 72.211 22.8921 72.1162 23.3063 72.1188H86.7625C87.1795 72.1188 87.5909 72.2158 87.9639 72.4022C88.337 72.5886 88.6616 72.8592 88.912 73.1926C89.1624 73.5261 89.3318 73.9133 89.4068 74.3235C89.4818 74.7337 89.4603 75.1558 89.3441 75.5563ZM55.5259 23.4094C55.316 23.3217 55.1255 23.1931 54.9656 23.0313L52.4219 20.4875C52.2616 20.3273 52.1345 20.137 52.0478 19.9276C51.9611 19.7182 51.9164 19.4938 51.9164 19.2672C51.9164 19.0406 51.9611 18.8161 52.0478 18.6068C52.1345 18.3974 52.2616 18.2071 52.4219 18.0469C52.5821 17.8866 52.7724 17.7595 52.9818 17.6728C53.1912 17.5861 53.4156 17.5414 53.6422 17.5414C53.8688 17.5414 54.0932 17.5861 54.3026 17.6728C54.512 17.7595 54.7023 17.8866 54.8625 18.0469L57.4063 20.625C57.5693 20.7801 57.6992 20.9667 57.7879 21.1736C57.8766 21.3804 57.9224 21.6031 57.9224 21.8281C57.9224 22.0532 57.8766 22.2759 57.7879 22.4827C57.6992 22.6895 57.5693 22.8762 57.4063 23.0313C57.1659 23.274 56.8587 23.4396 56.5238 23.507C56.1888 23.5743 55.8415 23.5404 55.5259 23.4094ZM42.4909 34.3991C42.3596 34.0839 42.325 33.7367 42.3918 33.4018C42.4585 33.0669 42.6235 32.7595 42.8656 32.5188L45.4094 29.975C45.5696 29.8148 45.7599 29.6876 45.9693 29.6009C46.1787 29.5142 46.4031 29.4695 46.6297 29.4695C46.8563 29.4695 47.0807 29.5142 47.2901 29.6009C47.4995 29.6876 47.6898 29.8148 47.85 29.975C48.0103 30.1353 48.1374 30.3255 48.2241 30.5349C48.3108 30.7443 48.3555 30.9687 48.3555 31.1953C48.3555 31.422 48.3108 31.6464 48.2241 31.8557C48.1374 32.0651 48.0103 32.2554 47.85 32.4156L45.2719 34.9594C45.1168 35.1225 44.9302 35.2523 44.7233 35.341C44.5165 35.4298 44.2938 35.4755 44.0688 35.4755C43.8437 35.4755 43.621 35.4298 43.4142 35.341C43.2074 35.2523 43.0207 35.1225 42.8656 34.9594C42.7037 34.7995 42.5752 34.609 42.4875 34.3991M40.3906 60.3728C40.4773 60.1631 40.6047 59.9727 40.7653 59.8125L43.3091 57.2688C43.4693 57.1085 43.6596 56.9814 43.869 56.8947C44.0783 56.8079 44.3028 56.7633 44.5294 56.7633C44.756 56.7633 44.9804 56.8079 45.1898 56.8947C45.3992 56.9814 45.5894 57.1085 45.7497 57.2688C45.91 57.429 46.0371 57.6193 46.1238 57.8286C46.2105 58.038 46.2552 58.2624 46.2552 58.4891C46.2552 58.7157 46.2105 58.9401 46.1238 59.1495C46.0371 59.3589 45.91 59.5491 45.7497 59.7094L43.2059 62.2531C42.9238 62.5359 42.5522 62.712 42.1547 62.7514C41.7572 62.7908 41.3583 62.6911 41.0261 62.4692C40.6939 62.2473 40.4489 61.9171 40.3331 61.5348C40.2172 61.1525 40.2375 60.7418 40.3906 60.3728ZM24.5094 54.7353C24.5961 54.5257 24.7234 54.3352 24.8841 54.175L27.4278 51.6313C27.7515 51.3076 28.1904 51.1258 28.6481 51.1258C29.1058 51.1258 29.5448 51.3076 29.8685 51.6313C30.1921 51.9549 30.3739 52.3939 30.3739 52.8516C30.3739 53.3093 30.1921 53.7482 29.8685 54.0719L27.3247 56.6156C26.9964 56.9304 26.5592 57.1061 26.1044 57.1061C25.6496 57.1061 25.2124 56.9304 24.8841 56.6156C24.6413 56.3753 24.4757 56.068 24.4083 55.7331C24.341 55.3982 24.3784 55.0508 24.5094 54.7353ZM79.8153 54.7353C79.902 54.5257 80.0294 54.3352 80.19 54.175L82.7338 51.6313C83.0574 51.3076 83.4964 51.1258 83.9541 51.1258C84.4118 51.1258 84.8507 51.3076 85.1744 51.6313C85.498 51.9549 85.6798 52.3939 85.6798 52.8516C85.6798 53.3093 85.498 53.7482 85.1744 54.0719L82.6306 56.6156C82.3023 56.9304 81.8651 57.1061 81.4103 57.1061C80.9555 57.1061 80.5183 56.9304 80.19 56.6156C79.9473 56.3753 79.7816 56.068 79.7143 55.7331C79.6469 55.3982 79.6843 55.0508 79.8153 54.7353ZM70.51 62.7584C70.2833 62.7589 70.0588 62.7144 69.8494 62.6277C69.6399 62.541 69.4497 62.4137 69.2897 62.2531L66.7459 59.7094C66.4223 59.3857 66.2405 58.9468 66.2405 58.4891C66.2405 58.0314 66.4223 57.5924 66.7459 57.2688C67.0696 56.9451 67.5086 56.7633 67.9663 56.7633C68.424 56.7633 68.8629 56.9451 69.1866 57.2688L71.7303 59.8125C71.9717 60.0538 72.1361 60.3613 72.2027 60.6961C72.2693 61.0309 72.2351 61.3779 72.1045 61.6932C71.9739 62.0086 71.7527 62.2781 71.4688 62.4677C71.185 62.6573 70.8513 62.7585 70.51 62.7584ZM32.1166 44.9522C32.2762 44.7921 32.4659 44.665 32.6747 44.5783C32.8835 44.4916 33.1073 44.4469 33.3335 44.4469H36.9428C37.3987 44.4469 37.8358 44.628 38.1582 44.9503C38.4805 45.2726 38.6616 45.7098 38.6616 46.1656C38.6616 46.6215 38.4805 47.0586 38.1582 47.381C37.8358 47.7033 37.3987 47.8844 36.9428 47.8844H33.3438C33.0034 47.885 32.6705 47.7845 32.3873 47.5957C32.1041 47.4069 31.8833 47.1382 31.7529 46.8238C31.6226 46.5093 31.5886 46.1633 31.6551 45.8295C31.7217 45.4957 31.8859 45.1891 32.1269 44.9488M72.5141 39.985C72.9713 39.985 73.4078 40.1672 73.7344 40.4903L76.2781 43.0341C76.6018 43.3577 76.7836 43.7967 76.7836 44.2544C76.7836 44.7121 76.6018 45.151 76.2781 45.4747C75.9545 45.7983 75.5155 45.9802 75.0578 45.9802C74.6001 45.9802 74.1612 45.7983 73.8375 45.4747L71.2938 42.9309C71.0524 42.6896 70.888 42.3821 70.8214 42.0473C70.7548 41.7126 70.789 41.3656 70.9196 41.0502C71.0502 40.7349 71.2714 40.4654 71.5553 40.2758C71.8391 40.0861 72.1727 39.985 72.5141 39.985ZM62.4972 33.0756C62.5839 32.866 62.7112 32.6755 62.8719 32.5153L65.4156 29.9716C65.5759 29.8113 65.7661 29.6842 65.9755 29.5975C66.1849 29.5107 66.4093 29.4661 66.6359 29.4661C66.8626 29.4661 67.087 29.5107 67.2964 29.5975C67.5058 29.6842 67.696 29.8113 67.8563 29.9716C68.0165 30.1318 68.1436 30.3221 68.2304 30.5315C68.3171 30.7408 68.3617 30.9653 68.3617 31.1919C68.3617 31.4185 68.3171 31.6429 68.2304 31.8523C68.1436 32.0617 68.0165 32.2519 67.8563 32.4122L65.3125 34.9559C65.0303 35.2387 64.6588 35.4148 64.2613 35.4542C63.8637 35.4936 63.4648 35.3939 63.1326 35.172C62.8004 34.9501 62.5555 34.6199 62.4396 34.2376C62.3237 33.8553 62.3441 33.4446 62.4972 33.0756ZM56.846 49.0463C56.5308 49.1777 56.1836 49.2122 55.8487 49.1455C55.5138 49.0787 55.2064 48.9137 54.9656 48.6716L52.4219 46.1278C52.0982 45.8042 51.9164 45.3652 51.9164 44.9075C51.9164 44.4498 52.0982 44.0108 52.4219 43.6872C52.7455 43.3635 53.1845 43.1817 53.6422 43.1817C54.0999 43.1817 54.5389 43.3635 54.8625 43.6872L57.4063 46.2309C57.6095 46.4308 57.7599 46.6781 57.8438 46.9505C57.9277 47.2229 57.9425 47.512 57.887 47.7916C57.8314 48.0712 57.7071 48.3325 57.5254 48.5522C57.3437 48.7718 57.1102 48.9428 56.846 49.0497" fill="black"/>
</svg>
