<svg width="86" height="86" viewBox="0 0 86 86" fill="none" xmlns="http://www.w3.org/2000/svg">
<g filter="url(#filter0_d_37_114)">
<path d="M81.4592 25.37C81.5968 25.8688 81.4231 26.4192 81.1324 26.8492L71.8616 40.6436C71.5176 41.1768 70.7952 41.4692 70.1915 41.4692C70.0195 41.4692 69.5379 41.4348 69.3504 41.3832L61.92 39.56V72.24C61.92 73.2376 61.2148 73.96 60.2 73.96H24.08C23.0652 73.96 22.36 73.2376 22.36 72.24V39.56L15.6864 41.4004C14.9124 41.6412 14.2416 41.3316 13.8116 40.6608L4.60963 26.9008C4.31723 26.4536 4.23123 25.9548 4.36883 25.456C4.48923 24.94 4.85043 24.596 5.31483 24.3552L24.08 15.48H32.68C33.6948 15.48 34.4 16.1852 34.4 17.2C34.4 20.7432 39.3708 23.2544 42.914 23.2544C46.4572 23.2544 51.6 20.7604 51.6 17.2C51.6 16.2024 52.3052 15.48 53.32 15.48H61.92L80.496 24.1832C80.9776 24.424 81.3216 24.854 81.4592 25.37Z" fill="white"/>
</g>
<defs>
<filter id="filter0_d_37_114" x="-4" y="0" width="94" height="94" filterUnits="userSpaceOnUse" color-interpolation-filters="sRGB">
<feFlood flood-opacity="0" result="BackgroundImageFix"/>
<feColorMatrix in="SourceAlpha" type="matrix" values="0 0 0 0 0 0 0 0 0 0 0 0 0 0 0 0 0 0 127 0" result="hardAlpha"/>
<feOffset dy="4"/>
<feGaussianBlur stdDeviation="2"/>
<feComposite in2="hardAlpha" operator="out"/>
<feColorMatrix type="matrix" values="0 0 0 0 0 0 0 0 0 0 0 0 0 0 0 0 0 0 0.25 0"/>
<feBlend mode="normal" in2="BackgroundImageFix" result="effect1_dropShadow_37_114"/>
<feBlend mode="normal" in="SourceGraphic" in2="effect1_dropShadow_37_114" result="shape"/>
</filter>
</defs>
</svg>
