<svg width="110" height="110" viewBox="0 0 110 110" fill="none" xmlns="http://www.w3.org/2000/svg">
<path d="M33.5638 9.16667H18.3333V0H39.7696L48.9363 22.9167H96.25V32.0833H86.5425L82.7521 96.5204C82.6831 97.6869 82.1712 98.7831 81.321 99.5847C80.4708 100.386 79.3465 100.833 78.1779 100.833H31.8221C30.6535 100.833 29.5292 100.386 28.679 99.5847C27.8288 98.7831 27.3169 97.6869 27.2479 96.5204L23.4575 32.0833H13.75V22.9167H39.0637L33.5638 9.16667ZM32.6379 32.0833L33.4538 45.9479C45.7004 46.4521 51.645 48.7208 56.65 50.7237C61.4671 52.6487 65.45 54.3262 76.0238 54.8487L77.3621 32.0833H32.6379Z" fill="black"/>
</svg>
