<svg width="63" height="105" viewBox="0 0 63 105" fill="none" xmlns="http://www.w3.org/2000/svg">
<g filter="url(#filter0_i_23_2)">
<rect x="35.5" y="21.5" width="20" height="6" rx="2.5" fill="#5B8797" stroke="#5B8797"/>
<rect x="30.5" y="19.5" width="15" height="10" rx="2.5" fill="#5B8797" stroke="#5B8797"/>
<rect x="0.5" y="0.5" width="33" height="48" rx="2.5" fill="#5B8797" stroke="#5B8797"/>
<rect x="4.5" y="35.5" width="25" height="48" rx="2.5" fill="#5B8797" stroke="#5B8797"/>
<rect x="8.5" y="56.5" width="17" height="48" rx="2.5" fill="#5B8797" stroke="#5B8797"/>
<path d="M56.5 18.5C59.1558 18.5 61.5 21.2911 61.5 25C61.5 28.7089 59.1558 31.5 56.5 31.5C53.8442 31.5 51.5 28.7089 51.5 25C51.5 21.2911 53.8442 18.5 56.5 18.5Z" fill="#5B8797" stroke="#5B8797"/>
<path d="M52.3739 41.3798L54.6139 31.6731C54.8399 30.6937 55.712 30 56.7171 30C57.752 30 58.6413 30.7346 58.8367 31.7508L60.808 42.0014C60.9325 42.649 60.8479 43.3385 60.3672 43.79C59.7719 44.3492 58.7114 45 57 45C55.4791 45 54.2152 44.486 53.3386 43.9791C52.4432 43.4613 52.1413 42.3877 52.3739 41.3798Z" fill="#5B8797" stroke="#5B8797" stroke-width="3"/>
<path d="M60.6261 7.62016L58.3861 17.3269C58.1601 18.3063 57.288 19 56.2829 19C55.248 19 54.3587 18.2654 54.1633 17.2492L52.192 6.99862C52.0675 6.35097 52.1521 5.66146 52.6328 5.20996C53.2281 4.65083 54.2886 4 56 4C57.5209 4 58.7848 4.51405 59.6614 5.02092C60.5568 5.53871 60.8587 6.61228 60.6261 7.62016Z" fill="#5B8797" stroke="#5B8797" stroke-width="3"/>
</g>
<defs>
<filter id="filter0_i_23_2" x="0" y="0" width="62.358" height="105" filterUnits="userSpaceOnUse" color-interpolation-filters="sRGB">
<feFlood flood-opacity="0" result="BackgroundImageFix"/>
<feBlend mode="normal" in="SourceGraphic" in2="BackgroundImageFix" result="shape"/>
<feColorMatrix in="SourceAlpha" type="matrix" values="0 0 0 0 0 0 0 0 0 0 0 0 0 0 0 0 0 0 127 0" result="hardAlpha"/>
<feOffset/>
<feGaussianBlur stdDeviation="20"/>
<feComposite in2="hardAlpha" operator="arithmetic" k2="-1" k3="1"/>
<feColorMatrix type="matrix" values="0 0 0 0 0 0 0 0 0 0 0 0 0 0 0 0 0 0 0.24 0"/>
<feBlend mode="normal" in2="shape" result="effect1_innerShadow_23_2"/>
</filter>
</defs>
</svg>
