<svg width="110" height="139" viewBox="0 0 110 139" fill="none" xmlns="http://www.w3.org/2000/svg">
<path d="M41.5833 100.833C39.0625 100.833 37 98.7708 37 96.25V55C37 52.4792 39.0625 50.4167 41.5833 50.4167H69.0833C71.6042 50.4167 73.6667 52.4792 73.6667 55V96.25C73.6667 98.7708 71.6042 100.833 69.0833 100.833H41.5833ZM46.1667 45.8333C43.6458 45.8333 41.5833 43.7708 41.5833 41.25V19.4792C41.5833 19.4792 50.75 9.16667 54.1875 0C59.1375 3.07083 64.1333 6.09583 66.6083 12.9708C69.0833 19.8458 69.0833 30.5708 69.0833 41.25C69.0833 43.7708 67.0208 45.8333 64.5 45.8333H46.1667Z" fill="black"/>
</svg>
